<?xml version="1.0" encoding="utf-8"?>
<!-- Generator: Adobe Illustrator 22.0.1, SVG Export Plug-In . SVG Version: 6.00 Build 0)  -->
<svg version="1.1" id="레이어_1" xmlns="http://www.w3.org/2000/svg" xmlns:xlink="http://www.w3.org/1999/xlink" x="0px"
	 y="0px" viewBox="0 0 64 64" style="enable-background:new 0 0 64 64;" xml:space="preserve">
<style type="text/css">
	.st0{fill:#DFEDF2;}
	.st1{fill:#262933;}
</style>
<title>nimf-libhangul</title>
<path class="st0" d="M12.2,0h39.6C58.5,0,64,5.5,64,12.2v39.6C64,58.5,58.5,64,51.8,64H12.2C5.5,64,0,58.5,0,51.8V12.2
	C0,5.5,5.5,0,12.2,0z"/>
<polygon class="st1" points="36.8,16 27,16 27,10.9 22.5,10.9 22.5,16 12.6,16 12.6,19.8 36.8,19.8 "/>
<path class="st1" d="M24.7,38.4c1.5,0,2.9-0.2,4.3-0.7c1.1-0.4,2.2-1,3.1-1.7c0.8-0.7,1.5-1.6,1.9-2.5c0.4-0.9,0.6-1.9,0.6-2.9v-1.4
	c0-1-0.2-2-0.6-2.9c-0.4-1-1.1-1.8-1.9-2.5c-0.9-0.8-2-1.4-3.1-1.8c-1.4-0.5-2.8-0.7-4.3-0.7c-1.5,0-2.9,0.2-4.3,0.7
	c-1.1,0.4-2.2,1-3.1,1.8c-0.8,0.7-1.4,1.5-1.9,2.5c-0.4,0.9-0.6,1.9-0.6,2.9v1.4c0,1,0.2,2,0.6,2.9c0.4,1,1.1,1.8,1.9,2.5
	c0.9,0.8,1.9,1.4,3.1,1.8C21.8,38.2,23.2,38.4,24.7,38.4z M19.2,30.4v-0.9c0-0.6,0.1-1.1,0.3-1.6c0.2-0.5,0.6-1,1-1.4
	c0.5-0.4,1.1-0.8,1.7-1c0.8-0.3,1.6-0.4,2.5-0.4c0.8,0,1.7,0.1,2.5,0.4c0.6,0.2,1.2,0.6,1.7,1c0.9,0.8,1.4,1.9,1.4,3v0.9
	c0,0.5-0.1,1.1-0.3,1.6c-0.2,0.5-0.6,1-1,1.4c-0.5,0.4-1.1,0.8-1.7,1c-0.8,0.3-1.6,0.4-2.4,0.4c-0.8,0-1.6-0.1-2.4-0.4
	c-0.6-0.2-1.2-0.6-1.8-1c-0.4-0.4-0.8-0.9-1-1.4C19.3,31.5,19.2,30.9,19.2,30.4L19.2,30.4z"/>
<polygon class="st1" points="45.4,23.9 45.4,11.3 41,11.3 41,42 45.4,42 45.4,27.8 51.5,27.8 51.5,23.9 "/>
<polygon class="st1" points="24.2,41.4 19.6,41.4 19.6,53.1 46.6,53.1 46.6,49.2 24.2,49.2 "/>
</svg>
